<svg xmlns="http://www.w3.org/2000/svg" viewBox="0 0 400 300" width="400" height="300" role="img" aria-label="Commit rhythm cover">
<rect width="400" height="300" fill="#1b1915"/>
<g font-family="ui-monospace, monospace" font-size="10" fill="#857c6c" text-anchor="middle"><text x="30" y="78">M</text><text x="30" y="101">T</text><text x="30" y="124">W</text><text x="30" y="147">T</text><text x="30" y="170">F</text><text x="30" y="193">S</text><text x="30" y="216">S</text>
<text x="46" y="238" text-anchor="start">0h</text><text x="209" y="238">12h</text><text x="372" y="238" text-anchor="end">23h</text></g>
<g><circle cx="46" cy="74" r="5" fill="#db4322" opacity="0.7"/><circle cx="60.2" cy="74" r="4.1" fill="#db4322" opacity="0.6"/><circle cx="74.3" cy="74" r="4.1" fill="#db4322" opacity="0.6"/><circle cx="88.5" cy="74" r="2.5" fill="#db4322" opacity="0.3"/><circle cx="102.7" cy="74" r="1.8" fill="#db4322" opacity="0.2"/><circle cx="116.9" cy="74" r="1.4" fill="#db4322" opacity="0.2"/><circle cx="131" cy="74" r="1.4" fill="#db4322" opacity="0.1"/><circle cx="145.2" cy="74" r="1.4" fill="#db4322" opacity="0.2"/><circle cx="159.4" cy="74" r="1.5" fill="#db4322" opacity="0.2"/><circle cx="173.6" cy="74" r="1.8" fill="#db4322" opacity="0.2"/><circle cx="187.7" cy="74" r="2" fill="#db4322" opacity="0.2"/><circle cx="201.9" cy="74" r="2.4" fill="#db4322" opacity="0.3"/><circle cx="216.1" cy="74" r="3.4" fill="#db4322" opacity="0.5"/><circle cx="230.3" cy="74" r="3.6" fill="#db4322" opacity="0.5"/><circle cx="244.4" cy="74" r="3.4" fill="#db4322" opacity="0.5"/><circle cx="258.6" cy="74" r="3.4" fill="#db4322" opacity="0.5"/><circle cx="272.8" cy="74" r="3" fill="#db4322" opacity="0.4"/><circle cx="287" cy="74" r="2.8" fill="#db4322" opacity="0.4"/><circle cx="301.1" cy="74" r="2.4" fill="#db4322" opacity="0.3"/><circle cx="315.3" cy="74" r="3.2" fill="#db4322" opacity="0.4"/><circle cx="329.5" cy="74" r="3.4" fill="#db4322" opacity="0.5"/><circle cx="343.7" cy="74" r="5.7" fill="#db4322" opacity="0.8"/><circle cx="357.8" cy="74" r="5.5" fill="#db4322" opacity="0.8"/><circle cx="372" cy="74" r="5.7" fill="#db4322" opacity="0.8"/><circle cx="46" cy="97" r="5.3" fill="#db4322" opacity="0.8"/><circle cx="60.2" cy="97" r="4.5" fill="#db4322" opacity="0.6"/><circle cx="74.3" cy="97" r="3.6" fill="#db4322" opacity="0.5"/><circle cx="88.5" cy="97" r="2.5" fill="#db4322" opacity="0.3"/><circle cx="102.7" cy="97" r="1.6" fill="#db4322" opacity="0.2"/><circle cx="116.9" cy="97" r="1.5" fill="#db4322" opacity="0.2"/><circle cx="131" cy="97" r="1.4" fill="#db4322" opacity="0.2"/><circle cx="145.2" cy="97" r="1.4" fill="#db4322" opacity="0.2"/><circle cx="159.4" cy="97" r="1.5" fill="#db4322" opacity="0.2"/><circle cx="173.6" cy="97" r="1.8" fill="#db4322" opacity="0.2"/><circle cx="187.7" cy="97" r="2.1" fill="#db4322" opacity="0.3"/><circle cx="201.9" cy="97" r="2.9" fill="#db4322" opacity="0.4"/><circle cx="216.1" cy="97" r="3.4" fill="#db4322" opacity="0.5"/><circle cx="230.3" cy="97" r="3" fill="#db4322" opacity="0.4"/><circle cx="244.4" cy="97" r="3.3" fill="#db4322" opacity="0.5"/><circle cx="258.6" cy="97" r="3.4" fill="#db4322" opacity="0.5"/><circle cx="272.8" cy="97" r="3.1" fill="#db4322" opacity="0.4"/><circle cx="287" cy="97" r="2.4" fill="#db4322" opacity="0.3"/><circle cx="301.1" cy="97" r="2.3" fill="#db4322" opacity="0.3"/><circle cx="315.3" cy="97" r="3" fill="#db4322" opacity="0.4"/><circle cx="329.5" cy="97" r="3.5" fill="#db4322" opacity="0.5"/><circle cx="343.7" cy="97" r="4.9" fill="#db4322" opacity="0.7"/><circle cx="357.8" cy="97" r="6.2" fill="#db4322" opacity="0.9"/><circle cx="372" cy="97" r="6.9" fill="#db4322" opacity="1"/><circle cx="46" cy="120" r="6.7" fill="#db4322" opacity="1"/><circle cx="60.2" cy="120" r="5.3" fill="#db4322" opacity="0.8"/><circle cx="74.3" cy="120" r="3.3" fill="#db4322" opacity="0.4"/><circle cx="88.5" cy="120" r="2.3" fill="#db4322" opacity="0.3"/><circle cx="102.7" cy="120" r="1.7" fill="#db4322" opacity="0.2"/><circle cx="116.9" cy="120" r="1.4" fill="#db4322" opacity="0.2"/><circle cx="131" cy="120" r="1.4" fill="#db4322" opacity="0.2"/><circle cx="145.2" cy="120" r="1.4" fill="#db4322" opacity="0.2"/><circle cx="159.4" cy="120" r="1.5" fill="#db4322" opacity="0.2"/><circle cx="173.6" cy="120" r="1.7" fill="#db4322" opacity="0.2"/><circle cx="187.7" cy="120" r="2" fill="#db4322" opacity="0.2"/><circle cx="201.9" cy="120" r="2.3" fill="#db4322" opacity="0.3"/><circle cx="216.1" cy="120" r="3.3" fill="#db4322" opacity="0.4"/><circle cx="230.3" cy="120" r="4.1" fill="#db4322" opacity="0.6"/><circle cx="244.4" cy="120" r="3.8" fill="#db4322" opacity="0.5"/><circle cx="258.6" cy="120" r="4" fill="#db4322" opacity="0.5"/><circle cx="272.8" cy="120" r="3.3" fill="#db4322" opacity="0.5"/><circle cx="287" cy="120" r="3" fill="#db4322" opacity="0.4"/><circle cx="301.1" cy="120" r="2.3" fill="#db4322" opacity="0.3"/><circle cx="315.3" cy="120" r="2.8" fill="#db4322" opacity="0.4"/><circle cx="329.5" cy="120" r="3.9" fill="#db4322" opacity="0.5"/><circle cx="343.7" cy="120" r="5.8" fill="#db4322" opacity="0.8"/><circle cx="357.8" cy="120" r="6.9" fill="#db4322" opacity="1"/><circle cx="372" cy="120" r="6.9" fill="#db4322" opacity="1"/><circle cx="46" cy="143" r="6.5" fill="#db4322" opacity="0.9"/><circle cx="60.2" cy="143" r="5.8" fill="#db4322" opacity="0.8"/><circle cx="74.3" cy="143" r="4" fill="#db4322" opacity="0.6"/><circle cx="88.5" cy="143" r="2.4" fill="#db4322" opacity="0.3"/><circle cx="102.7" cy="143" r="1.8" fill="#db4322" opacity="0.2"/><circle cx="116.9" cy="143" r="1.4" fill="#db4322" opacity="0.2"/><circle cx="131" cy="143" r="1.4" fill="#db4322" opacity="0.2"/><circle cx="145.2" cy="143" r="1.4" fill="#db4322" opacity="0.2"/><circle cx="159.4" cy="143" r="1.5" fill="#db4322" opacity="0.2"/><circle cx="173.6" cy="143" r="1.7" fill="#db4322" opacity="0.2"/><circle cx="187.7" cy="143" r="2.2" fill="#db4322" opacity="0.3"/><circle cx="201.9" cy="143" r="2.9" fill="#db4322" opacity="0.4"/><circle cx="216.1" cy="143" r="3.2" fill="#db4322" opacity="0.4"/><circle cx="230.3" cy="143" r="4" fill="#db4322" opacity="0.5"/><circle cx="244.4" cy="143" r="3.7" fill="#db4322" opacity="0.5"/><circle cx="258.6" cy="143" r="3.8" fill="#db4322" opacity="0.5"/><circle cx="272.8" cy="143" r="3.4" fill="#db4322" opacity="0.5"/><circle cx="287" cy="143" r="2.8" fill="#db4322" opacity="0.4"/><circle cx="301.1" cy="143" r="2.4" fill="#db4322" opacity="0.3"/><circle cx="315.3" cy="143" r="2.6" fill="#db4322" opacity="0.3"/><circle cx="329.5" cy="143" r="3.1" fill="#db4322" opacity="0.4"/><circle cx="343.7" cy="143" r="4.1" fill="#db4322" opacity="0.6"/><circle cx="357.8" cy="143" r="6.9" fill="#db4322" opacity="1"/><circle cx="372" cy="143" r="6.9" fill="#db4322" opacity="1"/><circle cx="46" cy="166" r="6.5" fill="#db4322" opacity="0.9"/><circle cx="60.2" cy="166" r="4" fill="#db4322" opacity="0.6"/><circle cx="74.3" cy="166" r="3.6" fill="#db4322" opacity="0.5"/><circle cx="88.5" cy="166" r="2.5" fill="#db4322" opacity="0.3"/><circle cx="102.7" cy="166" r="1.8" fill="#db4322" opacity="0.2"/><circle cx="116.9" cy="166" r="1.5" fill="#db4322" opacity="0.2"/><circle cx="131" cy="166" r="1.4" fill="#db4322" opacity="0.1"/><circle cx="145.2" cy="166" r="1.4" fill="#db4322" opacity="0.2"/><circle cx="159.4" cy="166" r="1.5" fill="#db4322" opacity="0.2"/><circle cx="173.6" cy="166" r="1.8" fill="#db4322" opacity="0.2"/><circle cx="187.7" cy="166" r="2.1" fill="#db4322" opacity="0.3"/><circle cx="201.9" cy="166" r="2.8" fill="#db4322" opacity="0.4"/><circle cx="216.1" cy="166" r="2.8" fill="#db4322" opacity="0.4"/><circle cx="230.3" cy="166" r="4.2" fill="#db4322" opacity="0.6"/><circle cx="244.4" cy="166" r="3.8" fill="#db4322" opacity="0.5"/><circle cx="258.6" cy="166" r="3.7" fill="#db4322" opacity="0.5"/><circle cx="272.8" cy="166" r="2.8" fill="#db4322" opacity="0.4"/><circle cx="287" cy="166" r="2.7" fill="#db4322" opacity="0.3"/><circle cx="301.1" cy="166" r="2.3" fill="#db4322" opacity="0.3"/><circle cx="315.3" cy="166" r="3.1" fill="#db4322" opacity="0.4"/><circle cx="329.5" cy="166" r="4.1" fill="#db4322" opacity="0.6"/><circle cx="343.7" cy="166" r="5.5" fill="#db4322" opacity="0.8"/><circle cx="357.8" cy="166" r="6.6" fill="#db4322" opacity="1"/><circle cx="372" cy="166" r="6.9" fill="#db4322" opacity="1"/><circle cx="46" cy="189" r="4.2" fill="#db4322" opacity="0.6"/><circle cx="60.2" cy="189" r="3.5" fill="#db4322" opacity="0.5"/><circle cx="74.3" cy="189" r="2.8" fill="#db4322" opacity="0.4"/><circle cx="88.5" cy="189" r="1.9" fill="#db4322" opacity="0.2"/><circle cx="102.7" cy="189" r="1.5" fill="#db4322" opacity="0.2"/><circle cx="116.9" cy="189" r="1.4" fill="#db4322" opacity="0.2"/><circle cx="131" cy="189" r="1.3" fill="#db4322" opacity="0.1"/><circle cx="145.2" cy="189" r="1.4" fill="#db4322" opacity="0.1"/><circle cx="159.4" cy="189" r="1.4" fill="#db4322" opacity="0.2"/><circle cx="173.6" cy="189" r="1.5" fill="#db4322" opacity="0.2"/><circle cx="187.7" cy="189" r="1.7" fill="#db4322" opacity="0.2"/><circle cx="201.9" cy="189" r="2" fill="#db4322" opacity="0.2"/><circle cx="216.1" cy="189" r="2.1" fill="#db4322" opacity="0.3"/><circle cx="230.3" cy="189" r="2.4" fill="#db4322" opacity="0.3"/><circle cx="244.4" cy="189" r="2.6" fill="#db4322" opacity="0.3"/><circle cx="258.6" cy="189" r="2.5" fill="#db4322" opacity="0.3"/><circle cx="272.8" cy="189" r="2.2" fill="#db4322" opacity="0.3"/><circle cx="287" cy="189" r="1.9" fill="#db4322" opacity="0.2"/><circle cx="301.1" cy="189" r="1.9" fill="#db4322" opacity="0.2"/><circle cx="315.3" cy="189" r="1.9" fill="#db4322" opacity="0.2"/><circle cx="329.5" cy="189" r="2.4" fill="#db4322" opacity="0.3"/><circle cx="343.7" cy="189" r="3.7" fill="#db4322" opacity="0.5"/><circle cx="357.8" cy="189" r="4.7" fill="#db4322" opacity="0.7"/><circle cx="372" cy="189" r="3.6" fill="#db4322" opacity="0.5"/><circle cx="46" cy="212" r="3.5" fill="#db4322" opacity="0.5"/><circle cx="60.2" cy="212" r="3.2" fill="#db4322" opacity="0.4"/><circle cx="74.3" cy="212" r="2.5" fill="#db4322" opacity="0.3"/><circle cx="88.5" cy="212" r="2" fill="#db4322" opacity="0.2"/><circle cx="102.7" cy="212" r="1.5" fill="#db4322" opacity="0.2"/><circle cx="116.9" cy="212" r="1.4" fill="#db4322" opacity="0.2"/><circle cx="131" cy="212" r="1.3" fill="#db4322" opacity="0.1"/><circle cx="145.2" cy="212" r="1.4" fill="#db4322" opacity="0.1"/><circle cx="159.4" cy="212" r="1.4" fill="#db4322" opacity="0.2"/><circle cx="173.6" cy="212" r="1.5" fill="#db4322" opacity="0.2"/><circle cx="187.7" cy="212" r="1.8" fill="#db4322" opacity="0.2"/><circle cx="201.9" cy="212" r="2" fill="#db4322" opacity="0.2"/><circle cx="216.1" cy="212" r="2.3" fill="#db4322" opacity="0.3"/><circle cx="230.3" cy="212" r="2.4" fill="#db4322" opacity="0.3"/><circle cx="244.4" cy="212" r="2.7" fill="#db4322" opacity="0.3"/><circle cx="258.6" cy="212" r="2.7" fill="#db4322" opacity="0.4"/><circle cx="272.8" cy="212" r="2.1" fill="#db4322" opacity="0.3"/><circle cx="287" cy="212" r="2" fill="#db4322" opacity="0.2"/><circle cx="301.1" cy="212" r="2.1" fill="#db4322" opacity="0.3"/><circle cx="315.3" cy="212" r="2.3" fill="#db4322" opacity="0.3"/><circle cx="329.5" cy="212" r="2.8" fill="#db4322" opacity="0.4"/><circle cx="343.7" cy="212" r="3.3" fill="#db4322" opacity="0.4"/><circle cx="357.8" cy="212" r="3.8" fill="#db4322" opacity="0.5"/><circle cx="372" cy="212" r="4.9" fill="#db4322" opacity="0.7"/></g>
<text x="46" y="268" font-family="ui-monospace, monospace" font-size="12" fill="#f1ece2">peak: 22–01h</text>
<text x="372" y="268" text-anchor="end" font-family="ui-monospace, monospace" font-size="12" fill="#db4322">◐ night owl</text>
</svg>
