<svg xmlns="http://www.w3.org/2000/svg" viewBox="0 0 400 300" width="400" height="300" role="img" aria-label="Flowfield cover">
<rect width="400" height="300" fill="#161410"/>
<g><path d="M132.8 289.2L135.9 290.6L138.9 292.3L141.8 294L144.7 295.8L147.5 297.7L150.3 299.6L153.1 301.6L155.8 303.6L158.6 305.6L161.3 307.6L164.1 309.6L166.9 311.5L169.7 313.4L172.6 315.2L175.5 317L178.5 318.6" fill="none" stroke="rgb(105,53,38)" stroke-width="1.3" opacity="0.3" stroke-linecap="round"/><path d="M183.8 263.2L185.2 266.3L186.7 269.4L188.3 272.4L190 275.3L191.7 278.2L193.6 281.1L195.6 283.8L197.7 286.5L199.9 289.1L202.2 291.6L204.6 294L207.2 296.2L209.9 298.3L212.7 300.2L215.6 301.9L218.7 303.4L221.8 304.8L225 305.9L228.3 306.7L231.7 307.4L235 307.8L238.4 308L241.8 308L245.2 307.8L248.6 307.4L251.9 306.8L255.3 306.1L258.5 305.2L261.8 304.1L265 303L268.1 301.7L271.3 300.4L274.3 298.9L277.4 297.4L280.4 295.8L283.3 294.1L286.2 292.3L289.1 290.5L292 288.7L294.8 286.8L297.6 284.8L300.3 282.8L303.1 280.8L305.8 278.7L308.4 276.6L311.1 274.5L313.7 272.3L316.3 270.1L318.8 267.9L321.3 265.6L323.8 263.3L326.3 261L328.8 258.6L331.2 256.2L333.5 253.8L335.9 251.3L338.2 248.8L340.5 246.3L342.7 243.7L344.9 241.1L347 238.5L349.2 235.8L351.2 233.1L353.2 230.4L355.2 227.6L357.1 224.8L359 222L360.8 219.1L362.6 216.2L364.3 213.3L366 210.3L367.6 207.3L369.1 204.2L370.6 201.2L372 198.1L373.3 195L374.6 191.8L375.8 188.6L377 185.4L378.1 182.2L379.1 179L380.1 175.7L381 172.5L381.9 169.2L382.7 165.9L383.5 162.6L384.3 159.3L385 155.9L385.7 152.6L386.4 149.3" fill="none" stroke="rgb(184,62,39)" stroke-width="1.6" opacity="0.3" stroke-linecap="round"/><path d="M268.5 107.8L270.4 110.7L272.2 113.6L274 116.5L275.8 119.4L277.5 122.3L279.3 125.2L281 128.1L282.7 131L284.5 133.9L286.2 136.9L288 139.8L289.8 142.6L291.7 145.5L293.6 148.3L295.6 151.1L297.6 153.8L299.7 156.4L302 159L304.3 161.5L306.8 163.8L309.4 166L312.1 168L314.9 169.9L317.9 171.5L321 172.9L324.2 174L327.5 174.9L330.9 175.4L334.3 175.6L337.7 175.5L341.1 175.1L344.4 174.3L347.6 173.2L350.7 171.9L353.7 170.2L356.5 168.4L359.2 166.3L361.8 164L364.1 161.6L366.3 159L368.4 156.3L370.3 153.5L372.1 150.6L373.7 147.6L375.3 144.6L376.8 141.5L378.2 138.4L379.5 135.3L380.8 132.1L382.1 129L383.3 125.8L384.6 122.7L385.9 119.5L387.2 116.4L388.5 113.3L390 110.2L391.4 107.1L393 104.1L394.7 101.2L396.5 98.3L398.4 95.4L400.4 92.7L402.6 90.1L404.8 87.6L407.3 85.2L409.8 82.9L412.5 80.8L415.3 78.9L418.2 77.1" fill="none" stroke="rgb(209,66,38)" stroke-width="2.2" opacity="0.4" stroke-linecap="round"/><path d="M153.9 289.6L156.5 291.8L159.1 294L161.7 296.3L164.2 298.5L166.8 300.7L169.4 302.9L172.1 305L174.7 307.1L177.5 309.1L180.3 311.1L183.1 312.9L186.1 314.6L189.1 316.2L192.2 317.6L195.3 318.9" fill="none" stroke="rgb(160,62,41)" stroke-width="2.2" opacity="0.3" stroke-linecap="round"/><path d="M370.1 245.1L370.1 241.7L370.2 238.3L370.4 234.9L370.8 231.5L371.3 228.2L371.9 224.8L372.5 221.5L373.2 218.2L374 214.9L374.8 211.5L375.6 208.2L376.4 204.9L377.2 201.6L378.1 198.4L378.9 195.1L379.7 191.7L380.5 188.4L381.2 185.1L382 181.8L382.7 178.5L383.4 175.1L384 171.8L384.7 168.5L385.3 165.1L385.9 161.8L386.4 158.4L387 155.1L387.6 151.7L388.1 148.4L388.7 145L389.3 141.7L389.9 138.3L390.5 135L391.1 131.6L391.9 128.3L392.6 125L393.5 121.7L394.4 118.4L395.4 115.2L396.5 112L397.7 108.8L399.1 105.7L400.5 102.6L402.2 99.6L403.9 96.7L405.8 93.9L407.9 91.2L410.1 88.6L412.4 86.2L415 83.9L417.6 81.7" fill="none" stroke="rgb(89,55,36)" stroke-width="1.5" opacity="0.7" stroke-linecap="round"/><path d="M190.2 19.8L192.6 22.1L195.1 24.5L197.6 26.8L200.1 29L202.7 31.3L205.2 33.5L207.8 35.8L210.4 38L213 40.2L215.6 42.3L218.2 44.5L220.8 46.7L223.5 48.8L226.1 51L228.8 53.1L231.4 55.2L234.1 57.3L236.8 59.4L239.5 61.5L242.2 63.6L244.9 65.6L247.6 67.7L250.3 69.7L253.1 71.7L255.8 73.7L258.6 75.6L261.4 77.6L264.2 79.4L267.1 81.3L270 83.1L272.9 84.8L275.9 86.5L278.9 88.1L281.9 89.6L285 91L288.1 92.3L291.3 93.5L294.5 94.6L297.8 95.5L301.1 96.3L304.5 96.9L307.8 97.4L311.2 97.6L314.6 97.7L318 97.5L321.4 97.2L324.8 96.7L328.1 96L331.4 95.1L334.6 94L337.8 92.8L340.9 91.5L344 90L347 88.5L350 86.9L353 85.2L355.9 83.4L358.8 81.7L361.7 79.9L364.6 78.1L367.5 76.4L370.4 74.6L373.4 73L376.4 71.3L379.4 69.8L382.5 68.3L385.6 66.9L388.7 65.6L391.9 64.5L395.1 63.4L398.4 62.5L401.7 61.6L405 60.9L408.4 60.3L411.7 59.9L415.1 59.5L418.5 59.3" fill="none" stroke="rgb(184,65,39)" stroke-width="1.5" opacity="0.5" stroke-linecap="round"/><path d="M355 231.1L356.8 228.2L358.6 225.3L360.3 222.4L362 219.4L363.7 216.5L365.3 213.5L366.9 210.4L368.4 207.4L369.9 204.3L371.3 201.2L372.6 198.1L373.9 195L375.1 191.8L376.3 188.6L377.4 185.4L378.5 182.2L379.5 178.9L380.4 175.7L381.3 172.4L382.2 169.1L383 165.8L383.7 162.5L384.5 159.1L385.2 155.8L385.9 152.5L386.5 149.2L387.2 145.8L387.9 142.5L388.5 139.2L389.2 135.8L389.9 132.5L390.7 129.2L391.5 125.9L392.4 122.6L393.3 119.3L394.3 116.1L395.4 112.9L396.6 109.7L398 106.6L399.4 103.5L401 100.5L402.7 97.5L404.6 94.7L406.6 92L408.8 89.3L411.1 86.9L413.5 84.5L416.1 82.3L418.9 80.3" fill="none" stroke="rgb(165,59,39)" stroke-width="1.1" opacity="0.6" stroke-linecap="round"/><path d="M368.5 163.4L370.4 160.6L372.1 157.6L373.8 154.7L375.3 151.6L376.7 148.6L378.1 145.4L379.4 142.3L380.6 139.1L381.8 135.9L382.9 132.7L384.1 129.5L385.2 126.3L386.4 123.1L387.5 119.9L388.8 116.8L390.1 113.6L391.4 110.5L392.8 107.4L394.4 104.4L396 101.4L397.8 98.5L399.6 95.6L401.6 92.9L403.8 90.2L406 87.7L408.4 85.3L411 83.1L413.7 80.9L416.4 79L419.3 77.2" fill="none" stroke="rgb(118,66,36)" stroke-width="0.9" opacity="0.6" stroke-linecap="round"/><path d="M397.1 211.6L396.1 208.4L395.2 205.1L394.4 201.8L393.8 198.4L393.3 195.1L392.9 191.7L392.5 188.3L392.3 184.9L392.1 181.5L392 178.1L391.9 174.7L391.9 171.3L391.9 167.9L391.9 164.5L392 161.2L392.1 157.8L392.3 154.4L392.5 151L392.7 147.6L393 144.2L393.3 140.8L393.7 137.4L394.1 134L394.6 130.7L395.1 127.3L395.8 124L396.5 120.7L397.4 117.4L398.3 114.1L399.4 110.9L400.6 107.7L401.9 104.6L403.4 101.5L405 98.5L406.8 95.6L408.8 92.9L410.9 90.2L413.1 87.6L415.6 85.3L418.1 83" fill="none" stroke="rgb(203,59,39)" stroke-width="2.5" opacity="0.3" stroke-linecap="round"/><path d="M266 285.1L269.4 285.3L272.8 285.3L276.2 285L279.6 284.5L282.9 283.8L286.2 282.9L289.4 281.9L292.6 280.7L295.7 279.3L298.8 277.9L301.8 276.3L304.8 274.6L307.7 272.9L310.6 271L313.4 269.1L316.1 267.1L318.8 265.1L321.5 262.9L324.1 260.8L326.7 258.6L329.2 256.3L331.7 254L334.2 251.6L336.6 249.2L338.9 246.8L341.2 244.3L343.5 241.7L345.7 239.2L347.9 236.6L350 233.9L352.1 231.2L354.1 228.5L356.1 225.7L358 222.9L359.9 220.1L361.7 217.2L363.5 214.3L365.2 211.3L366.8 208.3L368.4 205.3L369.9 202.3L371.3 199.2L372.7 196.1L374 193L375.3 189.8L376.5 186.6L377.6 183.4L378.6 180.2L379.7 176.9L380.6 173.7L381.5 170.4L382.4 167.1L383.2 163.8L383.9 160.5L384.7 157.2L385.4 153.8L386.1 150.5L386.7 147.2L387.4 143.8L388.1 140.5L388.8 137.2L389.5 133.9L390.2 130.5L391 127.2L391.9 123.9L392.8 120.7L393.8 117.4L394.8 114.2L396 111L397.3 107.8L398.7 104.7L400.2 101.7L401.9 98.7L403.7 95.9L405.7 93.1L407.8 90.4L410 87.9L412.4 85.5L415 83.2L417.6 81.1" fill="none" stroke="rgb(101,66,36)" stroke-width="2.3" opacity="0.4" stroke-linecap="round"/><path d="M45.1 292.2L46 288.9L46.8 285.6L47.5 282.3L48.1 278.9L48.7 275.6L49.2 272.2L49.6 268.9L50.1 265.5L50.5 262.1L51 258.8L51.4 255.4L51.9 252L52.5 248.7L53.1 245.3L53.8 242L54.7 238.7L55.7 235.5L56.8 232.3L58.2 229.1L59.7 226.1L61.5 223.2L63.5 220.5L65.8 217.9L68.3 215.6L71 213.6L73.9 211.9L77.1 210.5L80.3 209.5L83.6 208.8L87 208.5L90.4 208.5L93.8 208.8L97.1 209.5L100.4 210.3L103.7 211.4L106.8 212.7L109.9 214.2L112.9 215.8L115.8 217.5L118.6 219.4L121.4 221.4L124.1 223.5L126.7 225.6L129.3 227.9L131.8 230.1L134.2 232.5L136.6 234.9L139 237.4L141.3 239.9L143.5 242.4L145.8 245L148 247.6L150.1 250.2L152.2 252.9L154.3 255.5L156.4 258.2L158.4 261L160.5 263.7L162.5 266.4L164.5 269.2L166.5 271.9L168.5 274.6L170.6 277.4L172.6 280.1L174.7 282.7L176.8 285.4L179 288L181.2 290.6L183.5 293.1L185.9 295.5L188.3 297.9L190.9 300.2L193.5 302.3L196.2 304.4L199 306.3L202 308L205 309.6L208.1 311L211.2 312.2L214.5 313.2L217.8 314L221.1 314.6L224.5 315L227.9 315.1L231.3 315.1L234.7 314.9L238.1 314.5L241.4 314L244.8 313.2L248.1 312.4" fill="none" stroke="rgb(104,66,39)" stroke-width="1" opacity="0.4" stroke-linecap="round"/><path d="M222.6 78.3L223.5 81.6L224.2 84.9L224.7 88.2L225 91.6L225.1 95L224.9 98.4L224.5 101.8L223.8 105.1L222.9 108.4L221.8 111.6L220.4 114.7L218.8 117.7L217 120.6L215 123.4L212.8 126L210.5 128.5L208.1 130.8L205.5 133L202.8 135.1L200.1 137.1L197.2 139L194.4 140.8L191.5 142.6L188.5 144.3L185.5 146L182.6 147.6L179.6 149.3L176.6 150.9L173.7 152.6L170.8 154.4L167.9 156.2L165.1 158.2L162.4 160.2L159.8 162.3L157.2 164.6L154.8 167L152.6 169.6L150.6 172.3L148.7 175.2L147.1 178.2L145.8 181.3L144.7 184.5L143.9 187.8L143.3 191.2L143 194.5L143 197.9L143.1 201.3L143.5 204.7L144.1 208.1L144.9 211.4L145.7 214.7L146.8 217.9L147.9 221.1L149.1 224.3L150.4 227.4L151.8 230.6L153.2 233.6L154.7 236.7L156.2 239.7L157.7 242.8L159.3 245.8L160.9 248.8L162.5 251.8L164.2 254.7L165.9 257.7L167.6 260.6L169.3 263.6L171 266.5L172.8 269.4L174.6 272.3L176.5 275.1L178.4 277.9L180.3 280.7L182.4 283.5L184.4 286.2L186.6 288.8L188.8 291.3L191.1 293.8L193.6 296.2L196.1 298.5L198.7 300.7L201.4 302.7L204.3 304.6L207.2 306.3L210.2 307.8L213.4 309.2L216.6 310.3L219.8 311.2L223.2 311.9L226.5 312.4" fill="none" stroke="rgb(197,58,39)" stroke-width="0.9" opacity="0.5" stroke-linecap="round"/><path d="M255.7 29.2L259.1 28.9L262.5 28.4L265.8 27.8L269.1 27.1L272.4 26.3L275.7 25.4L278.9 24.4L282.2 23.2L285.3 22.1L288.5 20.8L291.6 19.5L294.7 18.1L297.8 16.7L300.9 15.2L304 13.8L307 12.3L310.1 10.8L313.1 9.3L316.2 7.8L319.3 6.3L322.3 4.9L325.4 3.5L328.5 2.1L331.7 0.8L334.8 -0.5L338 -1.7L341.2 -2.8L344.5 -3.8L347.8 -4.7L351.1 -5.5L354.4 -6.2L357.8 -6.7L361.1 -7.1L364.5 -7.4L367.9 -7.5L371.3 -7.4L374.7 -7.2L378.1 -6.7L381.4 -6.1L384.7 -5.3L388 -4.3L391.2 -3.1L394.3 -1.8L397.3 -0.2L400.3 1.4L403.2 3.2L406 5.1L408.7 7.2L411.4 9.3L414 11.5L416.5 13.7L419 16.1" fill="none" stroke="rgb(184,54,36)" stroke-width="0.9" opacity="0.4" stroke-linecap="round"/><path d="M132 197.5L132.9 200.8L133.9 204.1L135 207.3L136.3 210.4L137.6 213.5L139.1 216.6L140.6 219.7L142.2 222.7L143.8 225.7L145.4 228.7L147.1 231.6L148.8 234.5L150.6 237.5L152.3 240.4L154 243.3L155.8 246.2L157.6 249.1L159.3 252L161.1 254.9L162.9 257.8L164.7 260.7L166.5 263.6L168.4 266.4L170.2 269.3L172.1 272.1L174 274.9L175.9 277.7L177.9 280.5L179.9 283.2L182 285.9L184.2 288.6L186.4 291.1L188.7 293.6L191.1 296L193.6 298.3L196.2 300.6L198.9 302.6L201.7 304.6L204.6 306.3L207.6 307.9L210.7 309.4L213.8 310.6L217.1 311.6L220.4 312.4L223.7 313L227.1 313.4L230.5 313.5L233.9 313.5L237.3 313.3L240.7 312.9L244 312.3L247.3 311.6L250.6 310.7L253.9 309.7L257.1 308.6L260.3 307.4L263.4 306L266.5 304.6L269.5 303.1L272.5 301.6L275.5 299.9L278.5 298.2L281.4 296.5L284.3 294.7L287.1 292.8L289.9 290.9L292.7 289L295.5 287L298.2 285L301 283L303.7 280.9L306.3 278.8L309 276.6L311.6 274.4L314.2 272.2L316.7 270L319.3 267.7L321.8 265.5L324.3 263.1L326.7 260.8L329.1 258.4L331.5 256L333.9 253.5L336.2 251.1L338.5 248.6L340.8 246L343 243.4L345.2 240.8L347.3 238.2L349.4 235.5" fill="none" stroke="rgb(102,63,38)" stroke-width="1.3" opacity="0.4" stroke-linecap="round"/><path d="M247.9 18.4L251.3 17.8L254.6 17.1L257.9 16.3L261.1 15.3L264.4 14.2L267.5 13L270.7 11.7L273.8 10.3L276.8 8.8L279.8 7.2L282.8 5.6L285.7 3.9L288.6 2.1L291.5 0.3L294.3 -1.6L297.1 -3.6L299.9 -5.5L302.7 -7.5L305.4 -9.5L308.1 -11.6L310.8 -13.6L313.5 -15.7L316.2 -17.8L318.9 -19.9" fill="none" stroke="rgb(211,60,38)" stroke-width="1.1" opacity="0.7" stroke-linecap="round"/><path d="M84.5 203.2L87.9 203.3L91.3 203.8L94.6 204.5L97.8 205.4L101 206.6L104.2 208L107.2 209.5L110.1 211.2L113 213L115.8 214.9L118.6 216.9L121.3 219L123.9 221.1L126.5 223.4L129 225.7L131.4 228L133.8 230.4L136.2 232.9L138.5 235.4L140.8 237.9L143 240.5L145.2 243.1L147.4 245.7L149.5 248.3L151.6 251L153.7 253.7L155.7 256.4L157.8 259.1L159.8 261.9L161.8 264.6L163.8 267.4L165.8 270.1L167.8 272.9L169.8 275.6L171.8 278.3L173.9 281L176 283.7L178.1 286.4L180.3 289L182.5 291.5L184.9 294L187.3 296.4L189.7 298.7L192.3 301L195 303.1L197.7 305.1L200.6 306.9L203.6 308.6L206.6 310.1L209.7 311.4L212.9 312.5L216.2 313.4L219.5 314.1L222.9 314.6L226.3 314.9L229.7 315L233.1 314.9L236.5 314.6L239.9 314.1L243.2 313.5L246.5 312.7L249.8 311.8L253 310.8L256.2 309.6L259.4 308.3L262.5 307L265.6 305.6L268.6 304L271.6 302.4L274.6 300.8L277.5 299.1L280.4 297.3L283.3 295.5L286.2 293.7L289 291.8L291.8 289.8L294.6 287.9L297.3 285.8L300 283.8L302.7 281.7L305.4 279.6L308 277.5L310.6 275.3L313.2 273.1L315.8 270.9L318.3 268.6L320.9 266.3L323.3 264L325.8 261.7L328.2 259.3" fill="none" stroke="rgb(94,58,39)" stroke-width="1.2" opacity="0.7" stroke-linecap="round"/><path d="M224.6 145.2L222.3 147.7L220 150.1L217.5 152.5L215 154.8L212.5 157L209.9 159.2L207.2 161.4L204.6 163.5L201.9 165.6L199.3 167.8L196.7 169.9L194.1 172.1L191.5 174.4L189.1 176.7L186.7 179.1L184.4 181.6L182.2 184.2L180.1 186.9L178.2 189.8L176.4 192.7L174.9 195.7L173.5 198.8L172.3 202L171.3 205.2L170.6 208.5L170 211.9L169.7 215.3L169.5 218.7L169.6 222.1L169.8 225.5L170.1 228.9L170.6 232.2L171.2 235.6L172 238.9L172.8 242.2L173.8 245.4L174.8 248.7L176 251.9L177.2 255.1L178.5 258.2L179.8 261.3L181.3 264.4L182.8 267.5L184.3 270.5L186 273.4L187.7 276.4L189.5 279.2L191.5 282L193.5 284.8L195.6 287.5L197.8 290L200.1 292.5L202.6 294.9L205.1 297.1L207.8 299.2L210.6 301.1L213.6 302.8L216.6 304.4L219.7 305.7L222.9 306.8L226.2 307.7L229.5 308.4L232.9 308.8L236.3 309.1L239.7 309.1L243.1 308.9L246.5 308.5L249.8 308L253.2 307.3L256.5 306.4L259.7 305.4L262.9 304.3L266.1 303.1L269.2 301.7L272.3 300.3L275.3 298.8L278.3 297.2L281.3 295.5L284.2 293.8L287.1 292L290 290.2L292.8 288.3L295.6 286.4L298.4 284.4L301.1 282.4L303.8 280.3L306.5 278.2L309.2 276.1L311.8 274L314.4 271.8" fill="none" stroke="rgb(61,54,39)" stroke-width="1.7" opacity="0.7" stroke-linecap="round"/><path d="M250.5 127.4L250.1 130.7L249.6 134.1L248.8 137.4L247.9 140.7L246.8 143.9L245.6 147.1L244.2 150.2L242.7 153.3L241.1 156.2L239.4 159.2L237.6 162.1L235.7 164.9L233.8 167.7L231.8 170.4L229.8 173.2L227.7 175.9L225.7 178.6L223.6 181.3L221.6 184L219.5 186.7L217.6 189.5L215.6 192.3L213.8 195.2L212 198.1L210.3 201L208.8 204.1L207.3 207.1L206 210.3L204.8 213.5L203.8 216.7L203 220L202.2 223.3L201.7 226.7L201.3 230L201.1 233.4L201.1 236.8L201.2 240.2L201.5 243.6L201.9 247L202.4 250.4L203.2 253.7L204 257L205 260.2L206.2 263.4L207.5 266.5L209 269.6L210.6 272.6L212.3 275.5L214.2 278.3L216.3 281L218.5 283.6L220.9 286L223.5 288.3L226.2 290.4L229 292.2L232 293.9L235 295.3L238.2 296.5L241.5 297.5L244.8 298.2L248.2 298.6L251.6 298.8L255 298.8L258.4 298.6L261.7 298.1L265.1 297.5L268.4 296.7L271.7 295.8L274.9 294.7L278 293.5L281.2 292.1L284.3 290.7L287.3 289.1L290.3 287.5L293.2 285.8L296.1 284L299 282.2L301.8 280.3L304.6 278.3L307.3 276.3L310 274.3L312.7 272.2L315.4 270.1L318 267.9L320.5 265.7L323.1 263.4L325.6 261.1L328.1 258.8L330.5 256.4L332.9 254" fill="none" stroke="rgb(147,58,36)" stroke-width="1.9" opacity="0.7" stroke-linecap="round"/><path d="M162.5 274.2L164.7 276.8L166.8 279.5L169 282.1L171.2 284.7L173.4 287.3L175.7 289.8L178 292.3L180.3 294.8L182.7 297.2L185.2 299.5L187.8 301.7L190.4 303.8L193.2 305.9L196 307.7L198.9 309.5L201.9 311L205 312.4L208.2 313.7L211.5 314.7L214.8 315.5L218.1 316.1L221.5 316.5L224.9 316.7L228.3 316.7L231.7 316.6L235.1 316.2L238.4 315.7L241.7 315L245 314.2L248.3 313.2L251.5 312.2L254.7 311L257.9 309.7L261 308.3L264.1 306.9L267.1 305.3L270.1 303.7L273.1 302.1L276 300.4L278.9 298.6L281.8 296.8L284.6 294.9L287.5 293L290.3 291.1L293 289.1L295.8 287.1L298.5 285.1L301.2 283L303.9 280.9L306.5 278.8L309.1 276.6L311.8 274.5L314.3 272.2L316.9 270L319.4 267.7L321.9 265.4L324.4 263.1L326.8 260.7L329.3 258.3L331.6 255.9L334 253.5L336.3 251L338.6 248.5L340.9 245.9L343.1 243.4L345.3 240.8L347.4 238.1L349.5 235.4L351.6 232.7L353.6 230L355.6 227.2L357.5 224.4L359.3 221.6L361.1 218.7L362.9 215.8L364.6 212.8L366.2 209.9L367.8 206.8L369.3 203.8L370.8 200.7L372.2 197.6L373.5 194.5L374.8 191.3L376 188.2L377.1 185L378.2 181.7L379.3 178.5L380.2 175.2L381.1 172L382 168.7" fill="none" stroke="rgb(160,64,38)" stroke-width="1.2" opacity="0.6" stroke-linecap="round"/><path d="M35.2 60.9L32.2 62.6L29.4 64.5L26.7 66.6L24.2 68.9L21.9 71.4L19.9 74.1L18.1 77L16.7 80.1L15.6 83.3L14.8 86.6L14.5 90L14.5 93.4L14.8 96.8L15.5 100.1L16.4 103.4L17.7 106.5L19.1 109.6L20.8 112.6L22.6 115.5L24.6 118.2L26.6 120.9L28.8 123.6L31 126.1L33.3 128.6L35.7 131.1L38.1 133.5L40.5 135.8L43 138.2L45.5 140.5L48 142.8L50.5 145L53.1 147.3L55.6 149.6L58.2 151.8L60.7 154L63.3 156.3L65.9 158.5L68.4 160.7L71 163L73.5 165.2L76.1 167.5L78.6 169.7L81.2 172L83.7 174.3L86.2 176.5L88.7 178.8L91.2 181.1L93.7 183.4L96.2 185.8L98.7 188.1L101.2 190.4L103.6 192.8L106 195.2L108.4 197.6L110.8 200L113.2 202.4L115.6 204.9L117.9 207.3L120.3 209.8L122.6 212.3L124.9 214.8L127.1 217.3L129.4 219.9L131.6 222.5L133.8 225.1L136 227.7L138.1 230.3L140.3 232.9L142.4 235.6L144.5 238.3L146.5 241L148.6 243.7L150.6 246.4L152.6 249.2L154.6 251.9L156.6 254.7L158.5 257.5L160.5 260.3L162.4 263.1L164.4 265.9L166.3 268.6L168.3 271.4L170.2 274.2L172.2 277L174.2 279.7L176.3 282.4L178.4 285.1L180.5 287.7L182.7 290.3L185 292.8" fill="none" stroke="rgb(106,66,38)" stroke-width="2" opacity="0.6" stroke-linecap="round"/><path d="M292.9 271.9L296.2 271.2L299.5 270.4L302.7 269.3L305.9 268.1L309 266.7L312 265.2L315 263.5L317.9 261.8L320.8 259.9L323.6 258L326.3 256L329 253.9L331.6 251.7L334.1 249.4L336.6 247.1L339.1 244.8L341.5 242.4L343.8 239.9L346.1 237.4L348.3 234.8L350.5 232.2L352.6 229.5L354.6 226.8L356.6 224.1L358.6 221.3L360.5 218.4L362.3 215.6L364 212.6L365.7 209.7L367.3 206.7L368.9 203.7L370.4 200.6L371.8 197.5L373.2 194.4L374.5 191.3L375.7 188.1L376.9 184.9L378 181.7L379.1 178.5L380 175.2L381 172L381.9 168.7L382.7 165.4L383.5 162.1L384.2 158.8L385 155.4L385.7 152.1L386.4 148.8L387 145.4L387.7 142.1L388.4 138.8L389.1 135.5L389.8 132.1L390.6 128.8L391.4 125.5L392.3 122.2L393.3 119L394.3 115.7L395.4 112.5L396.6 109.4L398 106.2L399.4 103.2L401 100.2L402.8 97.2L404.7 94.4L406.7 91.7L408.9 89.1L411.2 86.6L413.7 84.3L416.3 82.1L419 80.1" fill="none" stroke="rgb(137,65,34)" stroke-width="2.1" opacity="0.3" stroke-linecap="round"/><path d="M11.8 182.7L12.2 179.3L12.9 176L13.9 172.7L15.3 169.6L17 166.7L19 164L21.5 161.6L24.2 159.6L27.2 157.9L30.4 156.7L33.7 155.9L37 155.5L40.4 155.5L43.8 155.8L47.2 156.5L50.5 157.3L53.7 158.4L56.8 159.7L59.9 161.1L63 162.6L65.9 164.3L68.8 166.1L71.7 167.9L74.5 169.8L77.3 171.7L80 173.8L82.7 175.8L85.4 177.9L88.1 180.1L90.7 182.2L93.3 184.4L95.8 186.6L98.4 188.9L100.9 191.2L103.4 193.5L105.9 195.8L108.3 198.2L110.8 200.5L113.2 202.9L115.6 205.3L118 207.8L120.3 210.2L122.6 212.7L124.9 215.2L127.2 217.7L129.5 220.3L131.7 222.8L133.9 225.4L136.1 228L138.3 230.7L140.4 233.3L142.5 236L144.6 238.6L146.7 241.3L148.7 244.1L150.8 246.8L152.8 249.5L154.7 252.3L156.7 255.1L158.7 257.8L160.6 260.6L162.6 263.4L164.5 266.2L166.5 269L168.4 271.8L170.4 274.5L172.4 277.3L174.4 280L176.5 282.7L178.6 285.4L180.7 288L183 290.6L185.3 293.1L187.6 295.6L190.1 297.9L192.6 300.2L195.3 302.3L198 304.3L200.8 306.2L203.8 307.9L206.8 309.4L209.9 310.8L213.1 311.9L216.4 312.9L219.7 313.6L223.1 314.1L226.5 314.5L229.9 314.6L233.3 314.5L236.7 314.2" fill="none" stroke="rgb(133,64,37)" stroke-width="1.3" opacity="0.6" stroke-linecap="round"/><path d="M235.3 285.7L238.2 287.5L241.2 289.1L244.3 290.5L247.5 291.6L250.8 292.4L254.2 293L257.6 293.3L261 293.4L264.4 293.2L267.8 292.8L271.1 292.3L274.4 291.5L277.7 290.6L280.9 289.5L284.1 288.3L287.2 287L290.3 285.5L293.3 284L296.3 282.3L299.2 280.6L302.1 278.8L305 276.9L307.8 275L310.5 273L313.2 271L315.9 268.9L318.5 266.7L321.2 264.5L323.7 262.3L326.2 260L328.7 257.7L331.2 255.4L333.6 253L336 250.5L338.3 248.1L340.6 245.6L342.9 243L345.1 240.4L347.2 237.8L349.4 235.2L351.5 232.5L353.5 229.7L355.5 227L357.4 224.2L359.3 221.3L361.1 218.5L362.9 215.6L364.6 212.6L366.2 209.7L367.8 206.6L369.3 203.6L370.8 200.5L372.2 197.4L373.5 194.3L374.8 191.2L376 188L377.2 184.8L378.2 181.6L379.3 178.3L380.2 175.1L381.2 171.8L382 168.5L382.9 165.2L383.6 161.9L384.4 158.6L385.1 155.3L385.8 151.9L386.5 148.6L387.1 145.3L387.8 141.9L388.5 138.6L389.2 135.3L389.9 131.9L390.7 128.6L391.5 125.3L392.4 122.1L393.4 118.8L394.4 115.6L395.5 112.3L396.8 109.2L398.1 106.1L399.6 103L401.2 100L402.9 97.1L404.8 94.3L406.9 91.5L409.1 88.9L411.4 86.5L413.9 84.1L416.5 82" fill="none" stroke="rgb(81,59,35)" stroke-width="1" opacity="0.4" stroke-linecap="round"/><path d="M376 201.5L376.9 198.3L377.8 195L378.7 191.7L379.6 188.4L380.4 185.1L381.2 181.8L382 178.5L382.7 175.2L383.4 171.9L384.1 168.5L384.8 165.2L385.4 161.9L386 158.5L386.6 155.2L387.2 151.8L387.8 148.5L388.4 145.1L389 141.8L389.6 138.4L390.2 135.1L390.9 131.7L391.6 128.4L392.4 125.1L393.2 121.8L394.2 118.6L395.2 115.3L396.3 112.1L397.5 108.9L398.9 105.8L400.3 102.7L401.9 99.7L403.7 96.8L405.6 94L407.6 91.3L409.8 88.7L412.2 86.2L414.7 83.9L417.3 81.8" fill="none" stroke="rgb(207,63,41)" stroke-width="0.9" opacity="0.4" stroke-linecap="round"/><path d="M260.1 149.3L259.6 152.7L259 156L258.2 159.4L257.4 162.7L256.6 165.9L255.6 169.2L254.6 172.5L253.6 175.7L252.5 178.9L251.4 182.1L250.3 185.4L249.2 188.6L248.2 191.8L247.2 195.1L246.2 198.3L245.3 201.6L244.5 204.9L243.7 208.2L243.1 211.6L242.6 214.9L242.2 218.3L242 221.7L241.9 225.1L242 228.5L242.2 231.9L242.6 235.3L243.2 238.6L244 241.9L245 245.2L246.2 248.3L247.7 251.4L249.3 254.4L251.2 257.3L253.2 260L255.5 262.5L258 264.8L260.7 266.9L263.5 268.7L266.5 270.3L269.7 271.7L272.9 272.7L276.2 273.4L279.6 273.9L283 274.1L286.4 274L289.8 273.6L293.1 273.1L296.4 272.3L299.7 271.3L302.9 270.2L306 268.9L309.1 267.4L312.1 265.8L315.1 264.2L318 262.4L320.8 260.5L323.6 258.5L326.3 256.4L328.9 254.3L331.5 252.1L334 249.9L336.5 247.5L339 245.2L341.3 242.7L343.7 240.3L345.9 237.7L348.2 235.2L350.3 232.5L352.4 229.9L354.5 227.2L356.5 224.4L358.4 221.6L360.3 218.8L362.1 215.9L363.9 213L365.6 210L367.2 207.1L368.8 204L370.3 201L371.7 197.9L373.1 194.8L374.4 191.7L375.6 188.5L376.8 185.3L377.9 182.1L379 178.9L379.9 175.6L380.9 172.3L381.8 169.1L382.6 165.8" fill="none" stroke="rgb(120,54,34)" stroke-width="1.7" opacity="0.3" stroke-linecap="round"/><path d="M108.2 37.1L105.4 39L102.5 40.8L99.5 42.4L96.4 43.8L93.3 45.2L90.1 46.4L86.9 47.5L83.6 48.5L80.4 49.4L77.1 50.3L73.8 51.2L70.5 52L67.2 52.8L63.9 53.7L60.6 54.5L57.3 55.4L54.1 56.3L50.8 57.4L47.6 58.5L44.4 59.7L41.3 61.1L38.3 62.6L35.3 64.2L32.5 66.1L29.7 68.1L27.2 70.4L24.8 72.8L22.7 75.5L20.9 78.3L19.3 81.4L18.2 84.6L17.3 87.8L16.9 91.2L16.8 94.6L17.1 98L17.7 101.4L18.6 104.6L19.8 107.8L21.2 110.9L22.8 113.9L24.6 116.8L26.5 119.6L28.6 122.3L30.7 124.9L32.9 127.5L35.2 130L37.6 132.5L40 134.9L42.4 137.3L44.9 139.6L47.3 141.9L49.8 144.2L52.4 146.5L54.9 148.8L57.4 151L60 153.3L62.5 155.5L65.1 157.8L67.7 160L70.2 162.3L72.8 164.5L75.3 166.8L77.9 169L80.4 171.3L82.9 173.5L85.5 175.8L88 178.1L90.5 180.4L93 182.7L95.5 185L97.9 187.4L100.4 189.7L102.8 192.1L105.3 194.4L107.7 196.8L110.1 199.2L112.5 201.7L114.9 204.1L117.2 206.5L119.5 209L121.9 211.5L124.2 214L126.4 216.5L128.7 219.1L130.9 221.7L133.1 224.2L135.3 226.9L137.5 229.5L139.6 232.1L141.7 234.8" fill="none" stroke="rgb(108,66,41)" stroke-width="2.5" opacity="0.4" stroke-linecap="round"/><path d="M355.3 114.7L357.9 112.6L360.5 110.3L363 108L365.4 105.6L367.8 103.2L370.2 100.7L372.5 98.3L374.8 95.8L377.2 93.4L379.6 90.9L382 88.6L384.5 86.3L387.1 84L389.7 81.8L392.4 79.8L395.1 77.8L398 75.9L400.9 74.2L403.9 72.6L407 71.2L410.1 69.8L413.3 68.7L416.6 67.7L419.9 66.8" fill="none" stroke="rgb(177,64,37)" stroke-width="1.9" opacity="0.7" stroke-linecap="round"/><path d="M272 145.9L272.5 149.2L272.9 152.6L273.2 156L273.5 159.4L273.7 162.8L273.9 166.2L274.1 169.6L274.3 173L274.6 176.4L274.8 179.7L275.1 183.1L275.5 186.5L275.9 189.9L276.4 193.2L277 196.6L277.8 199.9L278.7 203.2L279.7 206.4L280.9 209.6L282.3 212.7L283.9 215.7L285.7 218.6L287.7 221.3L289.9 223.9L292.3 226.3L295 228.5L297.8 230.4L300.7 232L303.9 233.4L307.1 234.4L310.4 235.1L313.8 235.5L317.2 235.6L320.6 235.4L324 234.9L327.3 234.2L330.5 233.1L333.7 231.9L336.7 230.5L339.7 228.8L342.6 227L345.4 225L348 222.9L350.6 220.7L353.1 218.4L355.4 215.9L357.7 213.4L359.9 210.7L361.9 208L363.9 205.3L365.8 202.4L367.5 199.5L369.2 196.6L370.8 193.6L372.3 190.5L373.8 187.4L375.1 184.3L376.4 181.2L377.6 178L378.7 174.8L379.7 171.5L380.7 168.3L381.6 165L382.5 161.7L383.4 158.4L384.2 155.1L384.9 151.8L385.7 148.5L386.4 145.2L387.1 141.9L387.8 138.5L388.6 135.2L389.4 131.9L390.2 128.6L391 125.3L391.9 122L392.9 118.8L393.9 115.5L395.1 112.3L396.3 109.2L397.7 106.1L399.2 103L400.8 100L402.5 97.1L404.4 94.3L406.5 91.5L408.7 88.9L411 86.5L413.5 84.2L416.1 82" fill="none" stroke="rgb(118,60,37)" stroke-width="1.5" opacity="0.6" stroke-linecap="round"/><path d="M214.2 55.2L216.1 58L217.9 60.9L219.7 63.8L221.4 66.7L222.9 69.8L224.4 72.8L225.8 75.9L227 79.1L228.1 82.3L229 85.6L229.8 88.9L230.3 92.3L230.7 95.7L230.9 99L230.8 102.4L230.5 105.8L230 109.2L229.2 112.5L228.2 115.8L227 118.9L225.5 122L223.9 125L222 127.8L220 130.6L217.9 133.2L215.5 135.7L213.1 138L210.6 140.3L207.9 142.5L205.2 144.5L202.5 146.5L199.7 148.5L196.8 150.3L194 152.2L191.1 154L188.3 155.8L185.4 157.7L182.6 159.5L179.7 161.5L177 163.4L174.3 165.5L171.7 167.7L169.1 169.9L166.7 172.3L164.5 174.9L162.3 177.5L160.4 180.3L158.7 183.2L157.1 186.3L155.8 189.4L154.8 192.7L154 196L153.4 199.3L153.1 202.7L153 206.1L153.2 209.5L153.5 212.9L153.9 216.3L154.6 219.6L155.4 222.9L156.3 226.2L157.3 229.4L158.4 232.6L159.6 235.8L160.8 239L162.1 242.1L163.5 245.2L164.9 248.3L166.4 251.4L167.9 254.5L169.4 257.5L171 260.5L172.6 263.5L174.3 266.5L176 269.4L177.7 272.3L179.5 275.2L181.4 278L183.3 280.8L185.3 283.6L187.4 286.3L189.5 288.9L191.8 291.5L194.1 294L196.5 296.3L199.1 298.6L201.7 300.7L204.5 302.7L207.4 304.5L210.4 306.1" fill="none" stroke="rgb(145,59,38)" stroke-width="1.7" opacity="0.3" stroke-linecap="round"/><path d="M208.1 24.5L211.1 26.2L214.1 27.7L217.1 29.2L220.2 30.6L223.4 31.9L226.5 33.2L229.7 34.3L233 35.4L236.2 36.3L239.5 37.2L242.9 37.9L246.2 38.5L249.6 39L252.9 39.4L256.3 39.6L259.7 39.8L263.1 39.8L266.5 39.7L269.9 39.4L273.3 39.1L276.7 38.6L280 38.1L283.4 37.4L286.7 36.7L290 35.8L293.2 34.9L296.5 33.9L299.7 32.9L302.9 31.8L306.2 30.7L309.4 29.5L312.6 28.3L315.7 27.2L318.9 26L322.1 24.9L325.3 23.7L328.6 22.6L331.8 21.6L335.1 20.6L338.3 19.7L341.6 18.8L344.9 18.1L348.3 17.4L351.6 16.9L355 16.4L358.4 16.1L361.8 15.9L365.2 15.8L368.6 15.9L372 16.1L375.3 16.4L378.7 16.9L382.1 17.6L385.4 18.3L388.6 19.2L391.9 20.2L395.1 21.4L398.3 22.6L401.4 24L404.5 25.4L407.5 26.9L410.6 28.4L413.5 30L416.5 31.7L419.5 33.4" fill="none" stroke="rgb(205,64,40)" stroke-width="1" opacity="0.6" stroke-linecap="round"/><path d="M224.6 33.1L227.7 34.4L230.9 35.5L234.2 36.6L237.4 37.5L240.7 38.4L244.1 39.1L247.4 39.7L250.8 40.2L254.1 40.6L257.5 40.9L260.9 41.1L264.3 41.1L267.7 41L271.1 40.8L274.5 40.5L277.9 40L281.2 39.5L284.6 38.8L287.9 38.1L291.2 37.3L294.5 36.4L297.7 35.4L301 34.4L304.2 33.4L307.4 32.3L310.6 31.1L313.8 30L317 28.9L320.2 27.7L323.4 26.6L326.7 25.5L329.9 24.4L333.1 23.4L336.4 22.5L339.7 21.6L343 20.8L346.3 20.1L349.7 19.5L353 18.9L356.4 18.5L359.8 18.2L363.2 18.1L366.6 18.1L370 18.2L373.4 18.4L376.7 18.8L380.1 19.3L383.4 19.9L386.8 20.7L390 21.6L393.3 22.6L396.5 23.8L399.7 25L402.8 26.3L405.9 27.7L409 29.2L412 30.7L415 32.2L418 33.8" fill="none" stroke="rgb(99,53,39)" stroke-width="2.1" opacity="0.5" stroke-linecap="round"/><path d="M283.9 135.2L285.6 138.1L287.3 141.1L289 144L290.7 146.9L292.5 149.8L294.4 152.7L296.3 155.5L298.3 158.2L300.5 160.9L302.7 163.4L305 165.9L307.5 168.2L310.1 170.4L312.8 172.4L315.7 174.2L318.7 175.8L321.9 177.2L325.1 178.2L328.4 179L331.8 179.4L335.2 179.5L338.6 179.3L341.9 178.8L345.2 177.9L348.4 176.8L351.5 175.3L354.4 173.6L357.2 171.7L359.9 169.6L362.4 167.3L364.7 164.8L366.9 162.2L368.9 159.4L370.7 156.6L372.5 153.7L374.1 150.7L375.6 147.6L377.1 144.6L378.4 141.4L379.7 138.3L381 135.1L382.2 132L383.4 128.8L384.6 125.6L385.8 122.4L387 119.2L388.3 116.1L389.6 112.9L391 109.8L392.5 106.8L394 103.8L395.7 100.8L397.5 97.9L399.4 95.1L401.4 92.4L403.6 89.7L405.9 87.2L408.3 84.9L410.9 82.6L413.6 80.5L416.4 78.6L419.3 76.9" fill="none" stroke="rgb(90,54,36)" stroke-width="1.9" opacity="0.4" stroke-linecap="round"/><path d="M360.3 20.4L363.7 20.2L367.1 20.2L370.4 20.3L373.8 20.5L377.2 20.9L380.6 21.4L383.9 22L387.2 22.7L390.5 23.6L393.8 24.6L397 25.7L400.2 26.9L403.4 28.1L406.5 29.5L409.6 30.9L412.6 32.3L415.7 33.8L418.7 35.4" fill="none" stroke="rgb(59,52,37)" stroke-width="1.2" opacity="0.4" stroke-linecap="round"/><path d="M396.1 262.1L393.7 259.7L391.5 257.2L389.5 254.4L387.6 251.6L386 248.6L384.6 245.5L383.4 242.3L382.4 239.1L381.7 235.7L381.1 232.4L380.7 229L380.4 225.6L380.3 222.2L380.3 218.8L380.5 215.4L380.7 212L381 208.7L381.3 205.3L381.7 201.9L382.1 198.5L382.6 195.2L383.1 191.8L383.6 188.4L384.1 185.1L384.6 181.7L385 178.3L385.5 175L386 171.6L386.5 168.2L387 164.9L387.4 161.5L387.9 158.1L388.3 154.8L388.8 151.4L389.3 148L389.8 144.7L390.3 141.3L390.8 137.9L391.4 134.6L392 131.2L392.7 127.9L393.4 124.6L394.3 121.3L395.2 118L396.2 114.8L397.3 111.6L398.5 108.4L399.8 105.3L401.3 102.2L402.9 99.2L404.7 96.3L406.6 93.5L408.7 90.8L410.9 88.2L413.3 85.8L415.8 83.5L418.5 81.4" fill="none" stroke="rgb(216,63,40)" stroke-width="1.2" opacity="0.3" stroke-linecap="round"/><path d="M223.3 119L221.7 122L219.9 124.8L217.8 127.6L215.7 130.2L213.3 132.6L210.9 135L208.3 137.2L205.7 139.4L202.9 141.4L200.1 143.3L197.3 145.2L194.4 147L191.5 148.8L188.6 150.6L185.7 152.3L182.8 154.1L179.9 155.8L177 157.7L174.2 159.6L171.4 161.5L168.7 163.6L166.1 165.7L163.6 168L161.2 170.5L159 173L156.9 175.7L155 178.6L153.4 181.5L152 184.6L150.8 187.8L149.9 191.1L149.2 194.4L148.8 197.8L148.7 201.2L148.7 204.6L149 208L149.4 211.4L150.1 214.7L150.8 218L151.7 221.3L152.8 224.5L153.9 227.8L155.1 230.9L156.3 234.1L157.7 237.2L159.1 240.3L160.5 243.4L162 246.5L163.5 249.5L165 252.5L166.6 255.5L168.2 258.5L169.9 261.5L171.6 264.5L173.3 267.4L175 270.3L176.8 273.2L178.7 276.1L180.6 278.9L182.5 281.7L184.5 284.4L186.6 287.1L188.8 289.7L191.1 292.2L193.4 294.7L195.9 297L198.5 299.2L201.1 301.3L203.9 303.3L206.8 305.1L209.8 306.7L212.9 308.1L216.1 309.3L219.3 310.4L222.6 311.1L226 311.7L229.4 312.1L232.7 312.3L236.1 312.2L239.5 312L242.9 311.5L246.3 311L249.6 310.2L252.9 309.3L256.1 308.3L259.3 307.2L262.5 305.9L265.6 304.6L268.7 303.1L271.7 301.6" fill="none" stroke="rgb(102,58,37)" stroke-width="1.2" opacity="0.4" stroke-linecap="round"/><path d="M105.9 63L102.7 64.1L99.5 65.1L96.2 66.1L92.9 67L89.7 67.8L86.4 68.7L83.1 69.5L79.8 70.4L76.5 71.3L73.2 72.2L70 73.2L66.8 74.3L63.6 75.5L60.4 76.8L57.4 78.3L54.4 79.9L51.5 81.7L48.7 83.7L46.2 85.9L43.8 88.3L41.6 90.9L39.7 93.8L38.2 96.8L37 100L36.1 103.3L35.7 106.6L35.6 110L35.9 113.4L36.5 116.8L37.5 120L38.7 123.2L40.1 126.3L41.7 129.3L43.5 132.2L45.5 135L47.5 137.7L49.7 140.3L51.9 142.9L54.1 145.4L56.5 147.9L58.9 150.3L61.3 152.7L63.7 155.1L66.1 157.5L68.6 159.8L71.1 162.1L73.6 164.4L76.1 166.7L78.6 169.1L81.1 171.4L83.6 173.7L86.1 176L88.6 178.3L91 180.6L93.5 182.9L96 185.3L98.4 187.6L100.9 190L103.3 192.4L105.7 194.8L108.2 197.1L110.5 199.6L112.9 202L115.3 204.4L117.6 206.9L120 209.4L122.3 211.9L124.6 214.4L126.8 216.9L129.1 219.5L131.3 222.1L133.5 224.6L135.7 227.3L137.8 229.9L140 232.5L142.1 235.2L144.2 237.9L146.2 240.6L148.3 243.3L150.3 246L152.3 248.8L154.3 251.5L156.3 254.3L158.2 257.1L160.2 259.9L162.1 262.6L164.1 265.4L166 268.2L168 271L169.9 273.8" fill="none" stroke="rgb(208,64,41)" stroke-width="1" opacity="0.3" stroke-linecap="round"/><path d="M194.2 166L191.6 168.1L188.9 170.3L186.4 172.5L183.8 174.8L181.4 177.1L179.1 179.6L176.9 182.2L174.8 184.9L172.9 187.7L171.2 190.7L169.7 193.7L168.3 196.8L167.2 200L166.3 203.3L165.6 206.6L165.2 210L164.9 213.4L164.9 216.8L165 220.2L165.3 223.6L165.8 227L166.4 230.3L167.1 233.6L167.9 236.9L168.9 240.2L169.9 243.4L171 246.7L172.2 249.8L173.4 253L174.7 256.1L176.1 259.2L177.6 262.3L179.1 265.4L180.7 268.4L182.3 271.4L184 274.3L185.8 277.2L187.6 280L189.6 282.8L191.6 285.6L193.7 288.2L196 290.8L198.3 293.2L200.8 295.6L203.4 297.8L206 299.9L208.9 301.8L211.8 303.5L214.8 305.1L217.9 306.4L221.1 307.6L224.4 308.5L227.7 309.2L231.1 309.7L234.5 310L237.9 310L241.3 309.9L244.7 309.5L248 309L251.3 308.3L254.6 307.5L257.9 306.5L261.1 305.4L264.3 304.2L267.4 302.9L270.5 301.5L273.6 300L276.6 298.4L279.6 296.7L282.5 295L285.4 293.3L288.3 291.5L291.1 289.6L293.9 287.7L296.7 285.7L299.5 283.7L302.2 281.7L304.9 279.6L307.6 277.5L310.2 275.4L312.8 273.2L315.4 271L318 268.8L320.5 266.5L323 264.2L325.5 261.9L327.9 259.5L330.3 257.1L332.7 254.7L335.1 252.2" fill="none" stroke="#f1ece2" stroke-width="0.8" opacity="0.6" stroke-linecap="round"/><path d="M94.7 233.7L98 233.2L101.4 232.9L104.8 232.9L108.2 233.3L111.5 233.9L114.8 234.8L118 235.8L121.2 237.1L124.3 238.6L127.2 240.3L130.1 242L132.9 244L135.7 246L138.3 248.1L140.9 250.3L143.4 252.6L145.9 255L148.3 257.4L150.6 259.9L152.9 262.4L155.1 264.9L157.4 267.5L159.6 270.1L161.7 272.7L163.9 275.3L166 277.9L168.2 280.6L170.4 283.2L172.6 285.8L174.8 288.4L177.1 290.9L179.4 293.4L181.8 295.8L184.2 298.2L186.7 300.5L189.3 302.6L192 304.7L194.8 306.7L197.7 308.5L200.6 310.1L203.7 311.6L206.8 312.9L210 314.1L213.3 315L216.6 315.7L220 316.2L223.4 316.5L226.8 316.6L230.2 316.5L233.6 316.3L237 315.8L240.3 315.2L243.6 314.5L246.9 313.6L250.1 312.6L253.3 311.4L256.5 310.2L259.6 308.9L262.7 307.5L265.8 306L268.8 304.4L271.8 302.8L274.7 301.1L277.7 299.3L280.6 297.5L283.4 295.7L286.3 293.8L289.1 291.9L291.8 290L294.6 288L297.3 286L300 283.9L302.7 281.8L305.4 279.7L308 277.6L310.6 275.4L313.2 273.2L315.8 271L318.3 268.7L320.9 266.4L323.3 264.1L325.8 261.7L328.2 259.4L330.6 257L333 254.5L335.3 252.1L337.7 249.6L339.9 247L342.2 244.5L344.4 241.9" fill="none" stroke="#f1ece2" stroke-width="1.5" opacity="0.4" stroke-linecap="round"/><path d="M78.7 234.4L81.5 232.4L84.5 230.8L87.6 229.5L90.9 228.4L94.2 227.7L97.6 227.3L101 227.3L104.4 227.5L107.7 228L111 228.8L114.3 229.8L117.5 231.1L120.5 232.5L123.5 234.1L126.5 235.8L129.3 237.7L132.1 239.7L134.7 241.8L137.4 244L139.9 246.2L142.4 248.5L144.8 250.9L147.2 253.4L149.5 255.9L151.7 258.4L154 261L156.1 263.6L158.3 266.2L160.4 268.8L162.6 271.5L164.7 274.2L166.8 276.8L168.9 279.5L171.1 282.1L173.2 284.8L175.4 287.4L177.6 289.9L179.9 292.4L182.3 294.9L184.7 297.3L187.2 299.6L189.8 301.8L192.4 303.9L195.2 305.9L198.1 307.7L201 309.4L204.1 311L207.2 312.3L210.4 313.4L213.6 314.4L217 315.1L220.3 315.7L223.7 316L227.1 316.1L230.5 316.1L233.9 315.8L237.3 315.4L240.6 314.8L243.9 314.1L247.2 313.2L250.5 312.2L253.7 311.1L256.8 309.9L260 308.5L263.1 307.1L266.1 305.6L269.1 304.1L272.1 302.5L275.1 300.8L278 299L280.9 297.3L283.8 295.4L286.6 293.5L289.4 291.6L292.2 289.7L294.9 287.7L297.7 285.7L300.4 283.6L303.1 281.5L305.7 279.4L308.4 277.3L311 275.1L313.6 272.9L316.1 270.6L318.7 268.4L321.2 266.1L323.7 263.8L326.1 261.4L328.6 259L331 256.6" fill="none" stroke="#f1ece2" stroke-width="1.6" opacity="0.6" stroke-linecap="round"/><path d="M345 26.4L348.3 25.8L351.7 25.2L355 24.7L358.4 24.3L361.8 24L365.2 23.9L368.6 23.8L372 23.9L375.4 24.2L378.8 24.5L382.1 25L385.5 25.6L388.8 26.3L392.1 27.1L395.4 28.1L398.6 29.1L401.8 30.2L405 31.4L408.2 32.7L411.3 34L414.4 35.4L417.5 36.8" fill="none" stroke="#f1ece2" stroke-width="0.9" opacity="0.5" stroke-linecap="round"/><path d="M34.5 299.8L35 296.4L35.4 293.1L35.6 289.7L35.6 286.3L35.5 282.9L35.3 279.5L34.9 276.1L34.3 272.7L33.7 269.4L32.9 266.1L32 262.8L31 259.6L29.9 256.4L28.7 253.2L27.4 250L26.1 246.9L24.7 243.8L23.2 240.7L21.7 237.7L20.1 234.7L18.5 231.7L16.8 228.7L15.1 225.8L13.4 222.8L11.7 219.9L10 217L8.3 214L6.6 211.1L4.9 208.1L3.2 205.2L1.6 202.2L0 199.2L-1.6 196.2L-3.1 193.1L-4.5 190L-5.9 186.9L-7.1 183.8L-8.3 180.6L-9.3 177.3L-10.1 174L-10.8 170.7L-11.3 167.3L-11.5 163.9L-11.5 160.5L-11.2 157.2L-10.5 153.8L-9.5 150.6L-8.1 147.5L-6.3 144.6L-4.2 142L-1.6 139.7L1.2 137.8L4.3 136.3L7.5 135.3L10.9 134.7L14.3 134.5L17.6 134.7L21 135.2L24.3 135.9L27.6 136.9L30.8 138.1L33.9 139.4L37 140.9L40 142.4L42.9 144.1L45.8 145.9L48.7 147.7L51.5 149.6L54.3 151.5L57.1 153.5L59.8 155.5L62.6 157.6L65.2 159.6L67.9 161.7L70.6 163.9L73.2 166L75.8 168.2L78.4 170.4L81 172.6L83.6 174.8L86.2 177L88.7 179.3L91.3 181.5L93.8 183.8L96.3 186.1L98.8 188.4L101.2 190.8L103.7 193.1L106.1 195.5L108.6 197.9" fill="none" stroke="#f1ece2" stroke-width="2.5" opacity="0.3" stroke-linecap="round"/><path d="M365 154.6L367.1 151.9L369.1 149.2L371 146.4L372.8 143.4L374.4 140.5L376 137.5L377.5 134.4L378.9 131.3L380.3 128.2L381.7 125.1L383 122L384.4 118.9L385.8 115.8L387.2 112.7L388.7 109.6L390.2 106.6L391.9 103.6L393.6 100.7L395.4 97.8L397.4 95L399.4 92.3L401.6 89.7L403.9 87.2L406.3 84.8L408.9 82.6L411.6 80.5L414.4 78.6L417.3 76.8" fill="none" stroke="#f1ece2" stroke-width="0.9" opacity="0.3" stroke-linecap="round"/><path d="M333.8 169.3L337.2 169.2L340.6 168.8L343.9 168.1L347.1 167L350.3 165.7L353.3 164.1L356.1 162.3L358.8 160.2L361.4 158L363.8 155.5L366 153L368.1 150.3L370 147.5L371.8 144.6L373.5 141.7L375.1 138.7L376.7 135.6L378.1 132.6L379.5 129.5L380.9 126.4L382.3 123.3L383.7 120.1L385.1 117L386.5 113.9L387.9 110.9L389.5 107.8L391.1 104.8L392.7 101.9L394.5 99L396.4 96.2L398.4 93.4L400.6 90.8L402.8 88.2L405.2 85.8L407.7 83.5L410.3 81.3L413.1 79.3L415.9 77.5L418.9 75.8" fill="none" stroke="#f1ece2" stroke-width="1" opacity="0.6" stroke-linecap="round"/><path d="M271.2 189.4L271.4 192.8L271.7 196.2L272.1 199.5L272.6 202.9L273.2 206.2L274 209.5L275 212.8L276.1 216L277.5 219.1L279 222.2L280.7 225.1L282.7 227.9L284.9 230.5L287.3 232.9L289.9 235.1L292.7 237L295.6 238.7L298.7 240.1L302 241.2L305.3 241.9L308.6 242.4L312 242.5L315.4 242.3L318.8 241.9L322.1 241.2L325.4 240.2L328.6 239.1L331.7 237.7L334.7 236.1L337.7 234.4L340.5 232.5L343.2 230.5L345.9 228.4L348.4 226.1L350.9 223.8L353.2 221.3L355.5 218.8L357.7 216.2L359.8 213.5L361.8 210.7L363.7 207.9L365.5 205.1L367.3 202.2L368.9 199.2L370.5 196.2L372 193.1L373.4 190L374.8 186.9L376 183.8L377.2 180.6L378.3 177.4L379.4 174.1L380.4 170.9L381.3 167.6L382.2 164.3L383.1 161L383.9 157.7L384.6 154.4L385.4 151.1L386.1 147.8L386.8 144.4L387.5 141.1L388.2 137.8L389 134.5L389.7 131.2L390.5 127.9L391.4 124.6L392.3 121.3L393.3 118L394.3 114.8L395.5 111.6L396.8 108.5L398.1 105.4L399.7 102.3L401.3 99.3L403.1 96.4L405 93.6L407.1 90.9L409.3 88.4L411.7 85.9L414.2 83.6L416.8 81.5L419.6 79.6" fill="none" stroke="#f1ece2" stroke-width="2.4" opacity="0.6" stroke-linecap="round"/><path d="M239.1 254.6L240.7 257.6L242.4 260.6L244.3 263.4L246.4 266L248.7 268.5L251.3 270.8L254 272.8L256.9 274.7L259.9 276.2L263 277.5L266.3 278.5L269.6 279.2L273 279.7L276.4 279.9L279.8 279.8L283.1 279.5L286.5 278.9L289.8 278.2L293.1 277.2L296.3 276.1L299.5 274.9L302.6 273.5L305.6 272L308.6 270.3L311.5 268.6L314.4 266.8L317.2 264.9L319.9 262.9L322.7 260.8L325.3 258.7L327.9 256.5L330.5 254.3L333 252L335.4 249.6L337.8 247.2L340.2 244.8L342.5 242.3L344.8 239.8L347 237.2L349.2 234.6L351.3 231.9L353.4 229.2L355.4 226.5L357.3 223.7L359.2 220.9L361.1 218L362.8 215.1L364.6 212.2L366.2 209.2L367.8 206.2L369.4 203.2L370.8 200.1L372.2 197L373.6 193.9L374.8 190.7L376.1 187.5L377.2 184.3L378.3 181.1L379.3 177.9L380.3 174.6L381.2 171.4L382.1 168.1L382.9 164.8L383.7 161.5L384.4 158.1L385.1 154.8L385.8 151.5L386.5 148.2L387.2 144.8L387.9 141.5L388.6 138.2L389.3 134.8L390 131.5L390.8 128.2L391.6 124.9L392.5 121.6L393.5 118.4L394.5 115.1L395.7 111.9L396.9 108.8L398.3 105.7L399.8 102.6L401.4 99.6L403.1 96.7L405.1 93.9L407.1 91.2L409.3 88.6L411.7 86.2L414.2 83.9L416.8 81.7" fill="none" stroke="#f1ece2" stroke-width="1.8" opacity="0.7" stroke-linecap="round"/><path d="M297.9 134.5L300.4 136.7L303.1 138.8L305.9 140.8L308.7 142.7L311.7 144.4L314.7 145.9L317.8 147.2L321.1 148.3L324.4 149.1L327.7 149.6L331.1 149.9L334.5 149.8L337.9 149.5L341.2 148.8L344.5 147.8L347.7 146.6L350.7 145.1L353.6 143.3L356.4 141.3L359 139.2L361.5 136.8L363.8 134.4L366 131.8L368.1 129.1L370.1 126.4L372.1 123.6L373.9 120.7L375.7 117.9L377.5 115L379.3 112.1L381.1 109.2L382.9 106.3L384.7 103.4L386.6 100.6L388.6 97.8L390.6 95.1L392.7 92.4L395 89.9L397.3 87.4L399.7 85L402.3 82.8L404.9 80.6L407.7 78.7L410.5 76.8L413.5 75.1L416.5 73.6L419.7 72.3" fill="none" stroke="#f1ece2" stroke-width="1.1" opacity="0.3" stroke-linecap="round"/></g>
<text x="24" y="282" font-family="ui-monospace, monospace" font-size="11" fill="#857c6c">46,000 particles · 60fps</text>
</svg>
